<svg xmlns="http://www.w3.org/2000/svg" width="24" height="24" viewBox="0 0 24 24">
    <g fill="none" fill-opacity=".7" fill-rule="evenodd">
        <g fill="#000">
            <g>
                <g>
                    <path d="M12 0c6.627 0 12 5.373 12 12s-5.373 12-12 12S0 18.627 0 12 5.373 0 12 0zm0 2C6.477 2 2 6.477 2 12s4.477 10 10 10 10-4.477 10-10S17.523 2 12 2zm4.485 4.586L17.9 8l-4.242 4.243 4.242 4.242-1.414 1.414-4.242-4.242L8 17.899l-1.414-1.414 4.243-4.242L6.586 8 8 6.586l4.243 4.243 4.242-4.243z" transform="translate(-628.000000, -503.000000) translate(490.000000, 253.000000) translate(138.000000, 250.000000)"/>
                </g>
            </g>
        </g>
    </g>
</svg>
