<svg xmlns="http://www.w3.org/2000/svg" width="24" height="24" viewBox="0 0 24 24">
    <g fill="none" fill-opacity=".7" fill-rule="evenodd">
        <g fill="#000">
            <g>
                <g>
                    <g>
                        <path d="M6.585.328C4.425 1.76 3 4.214 3 7c0 4.418 3.582 8 8 8 2.786 0 5.24-1.424 6.672-3.585C16.617 15.213 13.134 18 9 18c-4.97 0-9-4.03-9-9C0 4.866 2.787 1.383 6.585.328zM9 9v-.912L11.86 5.8H9V5h4v.912L10.14 8.2H13V9H9zm5-5v-.912L16.86.8H14V0h4v.912L15.14 3.2H18V4h-4z" transform="translate(-510.000000, -322.000000) translate(490.000000, 253.000000) translate(10.000000, 20.000000) translate(0.000000, 44.000000) translate(10.000000, 5.000000) translate(3.000000, 3.000000)"/>
                    </g>
                </g>
            </g>
        </g>
    </g>
</svg>
