<svg xmlns="http://www.w3.org/2000/svg" width="24" height="24" viewBox="0 0 24 24">
    <g fill="none" fill-opacity=".7" fill-rule="evenodd">
        <g fill="#000">
            <g>
                <g>
                    <g>
                        <g>
                            <g>
                                <g>
                                    <path d="M10 12v2c-5.506 0-8 1.781-8 5.429 0 .552-.448 1-1 1s-1-.448-1-1C0 14.504 3.506 12 10 12zm7.071-2l5.071 5.071-5.07 5.071-1.415-1.414 2.586-2.586H12v-2h6.385l-2.728-2.728L17.07 10zM10 0c2.761 0 5 2.239 5 5s-2.239 5-5 5-5-2.239-5-5 2.239-5 5-5zm0 2C8.343 2 7 3.343 7 5s1.343 3 3 3 3-1.343 3-3-1.343-3-3-3z" transform="translate(-510.000000, -278.000000) translate(490.000000, 253.000000) translate(10.000000, 20.000000) translate(10.000000, 5.000000) translate(1.000000, 2.000000) translate(0.000000, -0.000000) translate(0.000000, -0.000000)"/>
                                </g>
                            </g>
                        </g>
                    </g>
                </g>
            </g>
        </g>
    </g>
</svg>
