<svg xmlns="http://www.w3.org/2000/svg" width="24" height="24" viewBox="0 0 24 24">
    <g fill="none" fill-rule="evenodd">
        <g>
            <g>
                <g>
                    <g>
                        <g>
                            <path fill="#CB011A" d="M7 2.458v2.124C4.068 5.768 2 8.642 2 12c0 4.418 3.582 8 8 8s8-3.582 8-8c0-3.357-2.068-6.232-5-7.418V2.458c4.057 1.274 7 5.064 7 9.542 0 5.523-4.477 10-10 10S0 17.523 0 12c0-4.478 2.943-8.268 7-9.542zM9 0h2v8H9V0z" transform="translate(-510.000000, -454.000000) translate(490.000000, 253.000000) translate(10.000000, 20.000000) translate(0.000000, 176.000000) translate(10.000000, 5.000000) translate(2.000000, 1.000000)"/>
                        </g>
                    </g>
                </g>
            </g>
        </g>
    </g>
</svg>
